<?xml version="1.0" standalone="no"?>
<!DOCTYPE svg PUBLIC "-//W3C//DTD SVG 1.1//EN" "http://www.w3.org/Graphics/SVG/1.1/DTD/svg11.dtd" >
<svg xmlns="http://www.w3.org/2000/svg">
<metadata></metadata>
<defs>
<font id="psl_omyimbold" horiz-adv-x="819" >
<font-face units-per-em="2048" ascent="1638" descent="-410" />
<missing-glyph horiz-adv-x="512" />
<glyph horiz-adv-x="0" />
<glyph unicode="&#xd;" horiz-adv-x="512" />
<glyph unicode=" "  horiz-adv-x="512" />
<glyph unicode="&#x09;" horiz-adv-x="512" />
<glyph unicode="&#xa0;" horiz-adv-x="512" />
<glyph unicode="!" horiz-adv-x="440" d="M86 98q0 53 39 90t96 37q55 0 94 -37t39 -90t-39 -88t-94 -35q-57 0 -96 35t-39 88zM98 436v391q0 160 123 160q121 0 121 -160v-391q0 -162 -121 -162q-123 0 -123 162z" />
<glyph unicode="&#x22;" horiz-adv-x="489" d="M55 580v368h156v-368h-156zM283 580v368h153v-368h-153z" />
<glyph unicode="#" horiz-adv-x="1114" d="M27 262l59 150h197l51 135h-209l59 151h207l101 269h180l-103 -269h146l100 269h176l-100 -269h196l-59 -151h-194l-52 -135h203l-57 -150h-201l-104 -264h-177l103 264h-146l-102 -264h-176l100 264h-198zM459 412h147l51 135h-147z" />
<glyph unicode="$" horiz-adv-x="804" d="M35 135q0 47 33.5 77t91.5 30q23 0 106 -25q82 -25 137 -24q45 0 75 25.5t30 60.5q0 51 -45 77q-14 8 -45 19.5t-78 25.5q-156 43 -221 103q-72 66 -72 174q0 113 73 194.5t208 108.5v59q0 82 65 82q70 0 70 -82v-51q119 -10 182.5 -51t63.5 -100q0 -45 -30 -73t-83 -28 q-18 0 -88 16.5t-92 16.5q-102 0 -103 -72q0 -37 47 -59q39 -12 71 -22.5t58 -18.5q285 -88 285 -299q0 -61 -22.5 -115.5t-64.5 -97.5t-99.5 -70.5t-124.5 -35.5v-78q0 -82 -70 -82q-37 0 -51 18.5t-14 63.5v73q-141 14 -217 58.5t-76 101.5z" />
<glyph unicode="%" horiz-adv-x="1013" d="M14 752q0 45 17.5 86t48.5 70.5t73 47t91 17.5q45 0 87 -17.5t72.5 -47t49 -70.5t18.5 -86q0 -47 -18.5 -87t-49 -70t-72.5 -47.5t-87 -17.5q-49 0 -91 17.5t-73 47.5t-48.5 70t-17.5 87zM160 63q0 39 22 74l469 766q51 76 109 76q41 0 66.5 -23.5t25.5 -58.5 q0 -41 -27 -74l-467 -766q-49 -76 -106 -75q-39 0 -65.5 22.5t-26.5 58.5zM180 752q0 -23 18.5 -41.5t45.5 -18.5q23 0 42 17.5t19 42.5t-18.5 43t-42.5 18q-27 0 -45.5 -16.5t-18.5 -44.5zM545 209q0 45 17.5 86t48 69.5t71.5 46t90 17.5q45 0 87 -17.5t73 -46t49 -69.5 t18 -86q0 -96 -64.5 -156.5t-162.5 -60.5t-162.5 60.5t-64.5 156.5zM709 209q0 -33 26 -51q16 -10 37 -11q23 0 41 18.5t18 43.5t-17 42t-42 17q-27 0 -45 -16t-18 -43z" />
<glyph unicode="&#x26;" horiz-adv-x="993" d="M29 272q0 184 225 293q-88 100 -88 191q0 49 21.5 91t61.5 73.5t96 49t124 17.5t123 -18.5t95 -50t61.5 -75.5t21.5 -95q0 -147 -164 -244l121 -133q29 29 45 47t23 24q51 49 96 50q39 0 67.5 -29t28.5 -70q0 -66 -123 -172q16 -20 28.5 -34.5t20.5 -24.5q35 -47 35 -82 q0 -43 -30.5 -69.5t-75.5 -26.5q-41 0 -86 32q-10 10 -25.5 23.5t-36.5 34.5q-66 -51 -142.5 -75t-174.5 -24q-150 0 -250 82q-98 86 -98 215zM276 276q0 -47 35 -79.5t92 -32.5q78 0 160 63l-172 187q-115 -53 -115 -138zM395 752q0 -45 72 -107q98 40 98 103 q0 29 -25.5 50t-62.5 21q-35 0 -58.5 -19.5t-23.5 -47.5z" />
<glyph unicode="'" horiz-adv-x="266" d="M55 580v368h156v-368h-156z" />
<glyph unicode="(" horiz-adv-x="481" d="M98 426q0 131 22.5 246.5t67.5 226.5q51 129 129 129q45 0 72 -24.5t27 -67.5q-41 -123 -72 -249t-31 -261q0 -141 33 -264t70 -240q0 -92 -99 -92q-37 0 -64.5 24.5t-53.5 75.5q-45 98 -73 229.5t-28 266.5z" />
<glyph unicode=")" horiz-adv-x="481" d="M63 -78q43 123 74 246t31 258q0 143 -33 266q-18 59 -36.5 120.5t-35.5 123.5q0 92 101 92q72 0 117 -100q45 -102 73 -234q14 -70 21.5 -136t7.5 -132q0 -123 -23.5 -243t-66.5 -224q-53 -129 -129 -129q-47 0 -74 24.5t-27 67.5z" />
<glyph unicode="*" horiz-adv-x="731" d="M111 641q0 53 110 88q-57 20 -83.5 38.5t-26.5 51.5q0 31 20.5 53.5t54.5 22.5q33 0 64 -21.5t45 -31.5l-8 67q0 78 78 78q82 0 81 -78q0 -10 -4 -31.5t-6 -35.5q14 10 24.5 18t16.5 12q35 23 68 23q31 0 53.5 -22.5t22.5 -53.5t-26 -49t-85 -41q59 -20 85 -38.5 t26 -49.5q0 -33 -21.5 -54.5t-54.5 -21.5t-68 23q-4 4 -14 11t-27 19q2 -14 6 -37.5t4 -29.5q0 -80 -81 -80q-78 0 -78 80l8 67q-20 -14 -32.5 -23t-20.5 -13q-29 -16 -56 -17q-31 0 -53 22.5t-22 53.5z" />
<glyph unicode="+" d="M61 332v145h275v275h145v-275h277v-145h-277v-277h-145v277h-275z" />
<glyph unicode="," horiz-adv-x="421" d="M-8 -104q0 29 18 69l115 187q47 78 108 77q43 0 73 -25.5t30 -66.5q0 -18 -6 -33q-2 -14 -19 -38l-110 -187q-49 -78 -111 -78q-41 0 -69.5 27t-28.5 68z" />
<glyph unicode="-" horiz-adv-x="628" d="M47 375q0 92 125 92h289q119 0 119 -92t-121 -92h-289q-123 0 -123 92z" />
<glyph unicode="." horiz-adv-x="421" d="M72 119q0 55 41 92t100 37t98 -37t39 -92t-39 -90t-98 -35t-100 34.5t-41 90.5z" />
<glyph unicode="/" horiz-adv-x="546" d="M-59 61q0 35 22 70l436 776q25 43 49.5 63.5t59.5 20.5q45 0 74.5 -25.5t29.5 -66.5q0 -33 -22 -68l-443 -780q-41 -78 -106 -78q-41 0 -70.5 25t-29.5 63z" />
<glyph unicode="0" d="M37 483q0 242 108 381q102 127 265 127q164 0 264 -125q108 -139 108 -383q0 -242 -108 -381q-102 -123 -264 -122q-162 0 -265 120q-109 139 -108 383zM291 483q0 -135 33.5 -209.5t85.5 -74.5q118 -1 118 284q0 141 -32.5 213t-85.5 72q-51 0 -85 -71.5t-34 -213.5z " />
<glyph unicode="1" d="M125 852q0 55 41 82t133 27h115q141 0 141 -162v-647q0 -158 -127 -158t-127 158v589h-12q-164 0 -164 111z" />
<glyph unicode="2" d="M43 109q0 43 74 122q16 18 43.5 47t66.5 68q254 260 254 342q0 37 -21.5 58.5t-53.5 21.5q-63 0 -101 -90q-43 -117 -123 -117q-55 0 -88 33t-33 88q0 43 17.5 91t54.5 89q106 125 281 125q74 0 135 -21.5t105 -59.5t67.5 -91t23.5 -117q0 -104 -86 -221 q-59 -84 -243 -258h182q174 1 174 -110q0 -55 -41 -82t-133 -27h-405q-150 0 -150 109z" />
<glyph unicode="3" d="M43 242q0 51 30.5 81.5t82.5 30.5q33 0 58.5 -15t53.5 -54q14 -18 24.5 -30.5t16.5 -18.5q39 -43 101 -43q45 0 76.5 31.5t31.5 78.5t-33.5 68.5t-103.5 31.5q-59 12 -82 33t-23 74q0 43 25 66.5t80 37.5q98 20 98 86q0 31 -19.5 50.5t-53.5 19.5q-33 0 -54 -14 q-6 -2 -45 -35q-10 -10 -22.5 -19.5t-22.5 -19.5q-41 -31 -84 -31t-73.5 29t-30.5 72q0 84 100 159.5t238 75.5q133 0 223 -78t90 -188q0 -115 -109 -193q160 -83 160 -241q0 -137 -104 -226q-102 -86 -269 -86q-125 0 -231 70q-129 92 -129 197z" />
<glyph unicode="4" d="M4 297q0 35 8 51q2 2 13.5 21.5t33.5 56.5l281 442q41 59 81 83t99 24q88 0 139.5 -57.5t51.5 -169.5v-336q49 0 75.5 -31t26.5 -74q0 -41 -27.5 -72.5t-74.5 -31.5v-90q0 -59 -33 -90t-90 -31q-109 0 -109 129v82h-323q-152 0 -152 94zM289 412h190v315z" />
<glyph unicode="5" d="M41 170q0 47 28.5 75.5t75.5 28.5q31 0 103 -41q70 -39 123 -38q55 0 93 37.5t38 93.5q0 123 -115 123q-23 0 -88.5 -16.5t-81.5 -16.5q-100 0 -100 102l8 76l31 244q10 76 45 99.5t116 23.5h281q158 0 158 -109t-150 -109h-227l-12 -90q18 4 42.5 6.5t41.5 2.5 q133 0 223 -93q90 -90 90 -231q0 -160 -109 -262q-106 -100 -282 -101q-135 0 -236 58q-96 59 -96 137z" />
<glyph unicode="6" d="M33 324q0 205 235 483q162 184 238 184q47 0 84 -32.5t37 -77.5q0 -39 -62 -103q-51 -53 -86 -92t-51 -61l57 4q125 0 211 -90q88 -89 88 -224q0 -145 -110 -243q-109 -96 -277 -97q-162 0 -262 95q-102 98 -102 254zM287 311q0 -51 34.5 -86t84.5 -35q49 0 84.5 36 t35.5 85t-34.5 84t-85.5 35q-49 0 -84 -32.5t-35 -86.5z" />
<glyph unicode="7" d="M43 848q0 55 35 84t112 29h398q178 0 178 -127q0 -33 -23 -84l-333 -672q-29 -53 -60 -78t-71 -25q-55 0 -92 31t-37 80q0 39 30 98l291 559h-264q-86 0 -125 21.5t-39 83.5z" />
<glyph unicode="8" d="M31 289q0 154 129 239q-86 74 -86 185q0 119 94 194q94 80 240 80q145 0 241 -78q94 -76 94 -196q0 -109 -86 -185q127 -85 127 -239q0 -133 -106 -226q-106 -88 -270 -88q-166 0 -273 88q-104 88 -104 226zM283 309q0 -51 36.5 -88t88.5 -37q51 0 89 36t38 89 q0 51 -37 88t-90 37q-49 0 -87 -36t-38 -89zM315 694q0 -37 27 -63.5t66 -26.5t66.5 25.5t27.5 64.5q0 37 -26.5 63.5t-67.5 26.5q-37 0 -65 -27.5t-28 -62.5z" />
<glyph unicode="9" d="M33 641q0 150 108 248q106 100 279 100q158 0 260 -98q102 -96 102 -252q0 -213 -235 -485q-162 -180 -236 -181q-49 0 -86 31t-37 78q0 37 91 133q35 35 61.5 65.5t46.5 57.5l-49 -4q-131 0 -219 88q-86 88 -86 219zM291 649q0 -49 34.5 -84t82.5 -35q47 0 83.5 35 t36.5 84q0 51 -34.5 86t-85.5 35q-49 0 -83 -34t-34 -87z" />
<glyph unicode=":" horiz-adv-x="421" d="M72 119q0 55 41 92t100 37t98 -37t39 -92t-39 -90t-98 -35t-100 34.5t-41 90.5zM72 516q0 55 41 92t100 37t98 -37t39 -92t-39 -92t-98 -37t-100 37t-41 92z" />
<glyph unicode=";" horiz-adv-x="421" d="M-8 -104q0 29 18 69l115 187q47 78 108 77q43 0 73 -25.5t30 -66.5q0 -18 -6 -33q-2 -14 -19 -38l-110 -187q-49 -78 -111 -78q-41 0 -69.5 27t-28.5 68zM72 516q0 55 41 92t100 37t98 -37t39 -92t-40 -93t-97 -38q-59 0 -100 37t-41 94z" />
<glyph unicode="&#x3c;" horiz-adv-x="1204" d="M182 332v143l840 313v-163l-600 -222l600 -223v-162z" />
<glyph unicode="=" d="M61 197v145h697v-145h-697zM61 465v145h697v-145h-697z" />
<glyph unicode="&#x3e;" horiz-adv-x="1204" d="M182 18v162l602 223l-602 222v163l840 -313v-143z" />
<glyph unicode="?" horiz-adv-x="743" d="M6 735q0 88 96 166q100 82 252 82q160 0 254 -88q99 -90 99 -217q0 -113 -68 -188.5t-180 -96.5q0 -66 -32 -101.5t-89 -35.5q-119 0 -119 131v84q0 72 53 94q6 2 18.5 5t28 6.5t29.5 7.5t25 8q72 29 71 96q0 31 -26.5 53.5t-63.5 22.5q-35 0 -61.5 -13.5t-56.5 -43.5 l-26.5 -26.5t-19.5 -16.5q-41 -35 -79 -35q-45 0 -75 29.5t-30 76.5zM203 98q0 55 39 90t96 35t96 -35t39 -90q0 -53 -39 -88t-96 -35q-55 0 -95 36t-40 87z" />
<glyph unicode="@" horiz-adv-x="1439" d="M61 344q0 225 148 391q211 242 575 242q119 0 224.5 -31t181.5 -84q190 -139 190 -360q0 -225 -180 -361q-100 -76 -233 -75q-137 0 -156 90q-70 -88 -199 -88q-233 0 -233 231q0 162 100.5 268.5t245.5 106.5q109 0 164 -78l31 55h141l-105 -399l-4 -25q0 -35 54 -34 q51 0 104 47q121 104 121 264q0 150 -125 248q-127 98 -326 98q-190 0 -329 -84q-240 -152 -240 -422q0 -193 141 -309q143 -113 375 -113q225 0 424 125l66 -90q-225 -158 -486 -158q-135 0 -248.5 33t-199.5 94q-221 154 -222 418zM549 295q0 -113 98 -113q55 0 99.5 37 t60.5 105l37 137q-18 98 -111 98q-37 0 -70.5 -20.5t-59 -56.5t-40 -84t-14.5 -103z" />
<glyph unicode="A" horiz-adv-x="907" d="M0 98q0 31 10 66l262 665q61 145 189 146q125 0 180 -131l256 -676q14 -45 14 -72q0 -49 -34.5 -77.5t-90.5 -28.5q-94 0 -131 108l-24 78h-359l-30 -86q-37 -100 -121 -100q-53 0 -87 29.5t-34 78.5zM344 395h213l-100 305z" />
<glyph unicode="B" horiz-adv-x="897" d="M90 143v658q0 86 35 123t133 37h188q160 0 244 -63.5t84 -180.5q0 -127 -104 -185q184 -53 184 -239q0 -135 -95 -214t-276 -79h-227q-96 0 -131 30.5t-35 112.5zM340 205h104q148 0 148 96q0 94 -152 94h-100v-190zM340 594h86q49 0 75.5 22.5t26.5 59.5t-28.5 59.5 t-75.5 22.5h-84v-164z" />
<glyph unicode="C" horiz-adv-x="874" d="M39 479q0 229 143 367q143 141 365 141q68 0 126 -13t99 -34.5t64.5 -51.5t23.5 -61q0 -43 -31.5 -74.5t-76.5 -31.5q-18 0 -64 10q-92 27 -139 27q-106 0 -172 -77t-66 -206t65.5 -201.5t178.5 -72.5q55 0 147 30q55 16 68 17q37 0 69.5 -31t32.5 -74q0 -72 -90 -120 t-237 -48q-229 0 -367 136q-139 139 -139 368z" />
<glyph unicode="D" horiz-adv-x="1009" d="M90 143v658q0 86 35 123t133 37h184q193 0 308 -68q104 -59 162.5 -165.5t58.5 -235.5q0 -115 -35 -205t-99.5 -154.5t-158.5 -98.5t-211 -34h-211q-96 0 -131 30.5t-35 112.5zM340 219h94q264 1 264 273q0 249 -266 249h-2h-90v-522z" />
<glyph unicode="E" horiz-adv-x="737" d="M90 143v658q0 86 35 123t133 37h260q174 0 174 -111q0 -109 -174 -109h-178v-147h152q174 0 174 -111q0 -55 -41 -81.5t-133 -26.5h-152v-156h184h3q171 0 171 -110q0 -55 -41 -82t-133 -27h-268q-96 0 -131 30.5t-35 112.5z" />
<glyph unicode="F" horiz-adv-x="714" d="M90 150v651q0 86 35 123t133 37h260q174 0 174 -111q0 -109 -174 -109h-178v-147h152q174 0 174 -111q0 -55 -41 -81.5t-133 -26.5h-152v-225q0 -158 -125 -158t-125 158z" />
<glyph unicode="G" horiz-adv-x="1046" d="M39 481q0 231 141 371q137 137 379 137q168 0 275 -63q108 -65 108 -143q0 -44 -31.5 -77.5t-76.5 -33.5q-27 0 -115 45q-90 47 -166 47q-113 0 -178.5 -74t-65.5 -205q0 -135 65.5 -211.5t176.5 -76.5q86 0 139 46t53 124h-67q-172 0 -172 108q0 111 172 111h168 q94 0 133 -34t39 -120q0 -203 -133 -332q-131 -125 -351 -125q-219 0 -356 137.5t-137 368.5z" />
<glyph unicode="H" horiz-adv-x="1083" d="M90 150v661q0 162 125 162t125 -162v-213h401v213q0 162 127 162q125 0 125 -162v-661q0 -158 -125 -158q-127 0 -127 158v229h-401v-229q0 -158 -125 -158t-125 158z" />
<glyph unicode="I" horiz-adv-x="440" d="M94 150v661q0 162 127 162q125 0 125 -162v-661q0 -158 -125 -158q-127 0 -127 158z" />
<glyph unicode="J" horiz-adv-x="657" d="M-6 139q0 49 29.5 79t82.5 30q29 0 95 -31q39 -16 53 -16q39 0 51 36.5t12 129.5v444q0 162 125 162q127 0 127 -162v-514q0 -319 -307 -320q-123 0 -195.5 47.5t-72.5 114.5z" />
<glyph unicode="K" horiz-adv-x="897" d="M90 150v661q0 162 125 162t125 -162v-207l272 289q78 78 129 78q49 0 82 -31t33 -78q0 -51 -61 -112l-240 -234l301 -307q59 -60 59 -111q0 -45 -34.5 -75.5t-81.5 -30.5q-35 0 -63.5 17.5t-69.5 58.5l-326 335v-253q0 -158 -125 -158t-125 158z" />
<glyph unicode="L" horiz-adv-x="675" d="M90 145v666q0 162 125 162t125 -162v-592h184h3q171 0 171 -110q0 -55 -41 -82t-133 -27h-268q-96 0 -131 30.5t-35 114.5z" />
<glyph unicode="M" horiz-adv-x="1247" d="M20 109l11 67l123 643q16 80 53 117t112 37q135 0 170 -135l146 -523l131 523q33 135 170 135q78 0 116 -38t56 -124l111 -649l6 -53q0 -55 -36 -87t-89 -32q-111 0 -125 131l-68 506q-66 -270 -109.5 -419t-64.5 -177q-29 -41 -104 -41q-113 0 -148 114l-135 525 l-72 -496q-18 -141 -131 -141q-53 0 -88 30.5t-35 86.5z" />
<glyph unicode="N" horiz-adv-x="1083" d="M90 150v669q0 154 117 154q72 0 131 -74l403 -498v410q0 162 127 162q125 0 125 -162v-684q0 -141 -116 -141q-74 0 -140 77l-397 490v-403q0 -158 -125 -158t-125 158z" />
<glyph unicode="O" horiz-adv-x="1091" d="M39 479q0 227 139 367q141 141 369 141q225 0 364 -141q142 -140 142 -367q0 -221 -140 -366q-137 -137 -366 -138q-231 0 -369 136q-139 139 -139 368zM311 477q0 -129 62.5 -204.5t173.5 -75.5q104 0 168.5 75.5t64.5 204.5q0 135 -63.5 211t-169.5 76t-171 -76 t-65 -211z" />
<glyph unicode="P" horiz-adv-x="880" d="M90 150v651q0 86 35 123t133 37h209q180 0 279.5 -88t99.5 -242q0 -156 -94.5 -243t-268.5 -87h-143v-151q0 -158 -125 -158t-125 158zM340 516h90q145 0 145 115q0 112 -142 112h-3h-90v-227z" />
<glyph unicode="Q" horiz-adv-x="1091" d="M39 479q0 227 139 367q141 141 369 141q225 0 364 -141q141 -139 142 -367q0 -174 -90 -301l65 -55q53 -47 53 -100q0 -39 -30.5 -70t-77.5 -31q-53 0 -107 47l-73 58q-100 -51 -246 -52q-231 0 -369 136q-139 139 -139 368zM311 477q0 -131 63.5 -206.5t174.5 -75.5 q37 0 51 8q-51 45 -51 94q0 41 28.5 69.5t69.5 28.5q45 0 111 -53q22 78 22 135q0 135 -63.5 211t-169.5 76t-171 -76t-65 -211z" />
<glyph unicode="R" horiz-adv-x="868" d="M90 150v651q0 86 35 123t133 37h180q193 0 294.5 -83t101.5 -221q0 -100 -60.5 -168.5t-171.5 -91.5l170 -176q70 -70 70 -129q0 -47 -34 -76.5t-85 -29.5q-35 0 -65.5 17t-67.5 58l-250 291v-202q0 -158 -125 -158t-125 158zM340 535h96q135 0 135 106q0 102 -133 102 h-98v-208z" />
<glyph unicode="S" horiz-adv-x="804" d="M35 135q0 49 32.5 78t92.5 29q16 0 137 -31q35 -8 61.5 -12t44.5 -4q43 0 74 24.5t31 61.5q0 49 -38 72.5t-130 47.5q-156 43 -221 103q-72 66 -72 174q0 68 26.5 124t76 98t119 64.5t155.5 22.5q129 0 207 -44t78 -107q0 -45 -30 -73t-83 -28q-18 0 -88 16.5t-92 16.5 q-102 0 -103 -70q0 -47 68 -67q35 -10 61.5 -18.5t46.5 -14.5q285 -88 285 -297q0 -72 -28.5 -131t-82 -102t-127 -67t-163.5 -24q-143 0 -242 46q-96 47 -96 112z" />
<glyph unicode="T" horiz-adv-x="692" d="M-25 850q0 111 170 111h402q174 0 174 -111q0 -109 -174 -109h-76v-591q0 -158 -125 -158q-127 0 -127 158v591h-74q-170 0 -170 109z" />
<glyph unicode="U" horiz-adv-x="1067" d="M90 414v397q0 162 125 162t125 -162v-375q0 -239 190 -239h2q193 0 193 239v375q0 162 127 162q125 0 125 -162v-397q0 -217 -117 -328t-328 -111q-205 0 -323.5 111t-118.5 328z" />
<glyph unicode="V" horiz-adv-x="837" d="M-14 852q0 53 34.5 86t92.5 33q74 0 114 -99l203 -507l184 499q39 106 125 107q123 0 123 -111q0 -41 -14 -78l-297 -706q-43 -90 -129 -90q-80 0 -119 82l-305 720q-12 31 -12 64z" />
<glyph unicode="W" horiz-adv-x="1318" d="M10 868q0 49 35 78t92 29q102 0 121 -103l113 -553l153 555q31 98 140 99q106 0 137 -101l149 -553l113 539q29 115 127 115q55 0 90 -31t35 -78q0 -20 -10 -65l-177 -662q-20 -82 -54 -113.5t-113 -31.5q-127 0 -166 125l-140 499l-131 -487q-33 -137 -176 -137 q-72 0 -109.5 31.5t-58.5 113.5l-168 682z" />
<glyph unicode="X" horiz-adv-x="843" d="M-14 92q0 27 11 53.5t38 61.5l239 313l-180 234q-53 66 -53 112q0 47 34 77t89 30q61 0 127 -86l133 -172l135 176q68 84 131 84q43 0 78 -31t35 -72q0 -29 -13.5 -54t-41.5 -60l-181 -236l242 -317q31 -43 37 -55q16 -37 16 -60q0 -41 -32.5 -69.5t-81.5 -28.5 q-68 0 -136 80l-194 258l-195 -256q-66 -80 -129 -80q-47 0 -77.5 28.5t-30.5 69.5z" />
<glyph unicode="Y" horiz-adv-x="755" d="M-25 868q0 43 33 74t86 31q61 0 127 -86l164 -217l166 221q61 84 131 84q43 0 77 -32t34 -71q0 -33 -12.5 -55t-41.5 -59l-231 -309v-299q0 -158 -125 -158q-127 0 -127 158v299l-229 305q-14 20 -22.5 33.5t-12.5 21.5q-16 29 -17 59z" />
<glyph unicode="Z" horiz-adv-x="776" d="M-4 117q0 35 15.5 66.5t45.5 68.5l400 493h-277q-174 0 -174 107q0 55 41 82t133 27h391q207 0 207 -115q0 -35 -16.5 -63.5t-52.5 -71.5l-387 -492h305h3q171 0 171 -110q0 -109 -174 -109h-463q-168 0 -168 117z" />
<glyph unicode="[" horiz-adv-x="522" d="M102 -29v903q0 88 35 125t135 37h103q57 0 89 -21.5t32 -58.5q0 -82 -123 -82h-56v-886h58q59 0 90 -22.5t31 -61.5q0 -80 -123 -80h-101q-98 0 -134 31.5t-36 115.5z" />
<glyph unicode="\" horiz-adv-x="546" d="M-59 899q0 39 29.5 65.5t70.5 26.5q59 0 106 -84l443 -778q22 -41 22 -68q0 -39 -30.5 -63.5t-75.5 -24.5q-66 0 -109 78l-434 780q-23 35 -22 68z" />
<glyph unicode="]" horiz-adv-x="522" d="M27 -96q0 37 31.5 60.5t88.5 23.5h58v886h-55q-123 0 -123 82q0 80 120 80h103q98 0 134 -37.5t36 -124.5v-903q0 -84 -36 -115.5t-132 -31.5h-102q-123 0 -123 80z" />
<glyph unicode="^" horiz-adv-x="1439" d="M274 594l355 371h182l352 -371h-192l-250 225l-252 -225h-195z" />
<glyph unicode="_" horiz-adv-x="731" d="M0 -139h731v-135h-731v135z" />
<glyph unicode="`" horiz-adv-x="731" d="M168 1004q0 39 28.5 63.5t69.5 24.5q57 0 90 -45l105 -127q24 -29 24 -62q0 -78 -86 -78q-16 0 -34.5 6.5t-51.5 36.5l-106 107q-39 37 -39 74z" />
<glyph unicode="a" horiz-adv-x="874" d="M33 360q0 160 104.5 268.5t253.5 108.5q106 0 178 -67q43 59 109 59q121 0 121 -162v-415q0 -158 -121 -158q-74 0 -111 61q-77 -67 -181 -67h-3q-141 0 -248 102q-102 109 -102 270zM287 362q0 -74 36.5 -116.5t96.5 -42.5q59 0 96 42.5t37 116.5q0 72 -38 114t-95 42 t-95 -42t-38 -114z" />
<glyph unicode="b" horiz-adv-x="874" d="M78 152v718q0 162 123 162q121 0 121 -162v-172q33 23 75.5 36.5t89.5 13.5q150 0 252.5 -109t102.5 -277q0 -160 -107 -266q-104 -106 -248 -106q-111 0 -180 61q-10 -14 -19 -23.5t-14 -13.5q-33 -20 -73 -20q-123 0 -123 158zM317 367q0 -78 38 -122t102 -44 q59 0 97 46t38 120q0 78 -37 123t-98 45t-100.5 -45.5t-39.5 -122.5z" />
<glyph unicode="c" horiz-adv-x="694" d="M33 360q0 166 106 271q106 106 289 106q123 0 191.5 -39t68.5 -102q0 -43 -28.5 -71.5t-73.5 -28.5q-10 0 -69.5 16t-88.5 16q-63 0 -103 -44t-40 -119q0 -80 38.5 -123t112.5 -43q29 0 88.5 16t65.5 16q43 0 70.5 -29.5t27.5 -70.5q0 -61 -75.5 -103t-198.5 -42 q-168 0 -275 100q-106 104 -106 274z" />
<glyph unicode="d" horiz-adv-x="874" d="M33 369q0 162 104.5 270.5t251.5 108.5q98 0 164 -50v172q0 162 125 162q121 0 121 -162v-718q0 -158 -121 -158q-66 0 -111 57q-72 -61 -178 -61q-143 0 -249.5 106.5t-106.5 272.5zM285 367q0 -74 37.5 -120t99.5 -46q61 0 98 44t37 122t-37 123t-98 45 q-59 0 -98 -45.5t-39 -122.5z" />
<glyph unicode="e" horiz-adv-x="817" d="M33 358q0 164 110 273q114 108 274 108h3q160 0 268 -102q107 -100 107 -250q0 -55 -28 -74.5t-93 -19.5h-387q20 -106 155 -107q72 0 144 33q82 35 92 35q45 0 72.5 -23.5t27.5 -64.5q0 -68 -100 -125q-102 -55 -248 -55q-172 0 -285 104q-113 106 -112 268zM285 446 h268q-8 47 -45 76t-86 29q-111 0 -137 -105z" />
<glyph unicode="f" horiz-adv-x="520" d="M-8 612q0 47 31.5 75t99.5 28l-2 26q0 141 62.5 216t178.5 75q76 0 118 -31.5t42 -85.5q0 -45 -26.5 -66.5t-69.5 -27.5q-43 -4 -49 -16q-6 -10 -6 -51v-39h22q154 -1 154 -103q0 -100 -154 -100h-28v-360q0 -158 -119 -158q-123 0 -123 158v360q-131 0 -131 100z" />
<glyph unicode="g" horiz-adv-x="868" d="M33 358q0 162 104.5 270.5t253.5 108.5q106 0 178 -67q41 59 101 59q121 0 121 -162v-420q0 -115 -10.5 -177t-43.5 -115q-102 -158 -348 -158q-156 0 -248 46t-92 114q0 45 31 73.5t78 28.5q25 0 96 -27q79 -28 139 -28h4q164 0 164 162v8q-2 -4 -2 -15q-25 -33 -74 -52 t-116 -19q-139 0 -238 102q-98 106 -98 268zM287 358q0 -78 36.5 -123t98.5 -45q61 0 98 45t37 123q0 74 -37 117t-98 43q-59 0 -97 -44t-38 -116z" />
<glyph unicode="h" horiz-adv-x="858" d="M78 152v718q0 162 123 162q121 0 121 -162v-184q72 53 182 53q283 0 282 -286v-301q0 -158 -122 -158q-123 0 -123 158v237q0 80 -23.5 116t-87.5 36q-109 0 -108 -150v-239q0 -158 -121 -158q-123 0 -123 158z" />
<glyph unicode="i" horiz-adv-x="411" d="M68 901q0 55 39.5 93t99.5 38q59 0 98 -37t39 -94q0 -55 -40 -93t-97 -38q-61 0 -100 37t-39 94zM84 152v419q0 164 123 164t123 -164v-419q0 -158 -123 -158t-123 158z" />
<glyph unicode="j" horiz-adv-x="411" d="M68 901q0 55 39.5 93t99.5 38q57 0 97 -38t40 -93t-39 -94t-98 -39t-99 38t-40 95zM84 -129v698q0 164 123 164t123 -164v-698q0 -164 -123 -164t-123 164z" />
<glyph unicode="k" horiz-adv-x="749" d="M78 152v718q0 162 123 162q121 0 121 -162v-360l170 166q66 59 124 59q43 0 74 -26.5t31 -63.5q0 -59 -62 -108l-141 -123l203 -224q45 -51 45 -106q0 -39 -33 -65.5t-82 -26.5q-70 0 -125 63l-204 256v-159q0 -158 -121 -158q-123 0 -123 158z" />
<glyph unicode="l" horiz-adv-x="411" d="M84 152v718q0 162 123 162t123 -162v-718q0 -158 -123 -158t-123 158z" />
<glyph unicode="m" horiz-adv-x="1265" d="M78 152v415q0 162 123 162q63 0 106 -59q70 61 176 61q145 0 224 -92q98 92 227 92q123 0 192.5 -72.5t69.5 -209.5v-297q0 -158 -123 -158q-121 0 -121 158v235q0 76 -20.5 112t-71.5 36q-100 0 -100 -146v-237q0 -158 -123 -158t-123 158v235q0 147 -90 148 q-55 0 -78.5 -36t-23.5 -110v-237q0 -158 -121 -158q-123 0 -123 158z" />
<glyph unicode="n" horiz-adv-x="858" d="M78 152v415q0 162 123 162q63 0 106 -59q70 63 197 63q283 0 282 -284v-297q0 -158 -122 -158q-123 0 -123 158v235q0 80 -23.5 115t-87.5 35q-109 0 -108 -148v-237q0 -158 -121 -158q-123 0 -123 158z" />
<glyph unicode="o" horiz-adv-x="845" d="M141 633q114 108 278 108h3q174 0 280 -106q109 -109 109 -275q0 -168 -111 -274q-109 -104 -278 -104q-174 0 -281 104q-108 108 -108 271q0 167 108 276zM287 362q0 -78 36.5 -122.5t98.5 -44.5q61 0 99 45.5t38 121.5q0 74 -39 119t-98 45t-97 -44t-38 -120z" />
<glyph unicode="p" horiz-adv-x="874" d="M78 -131v698q0 162 123 162q63 0 106 -59q70 63 182 63q150 0 250 -106q103 -109 103 -269q0 -162 -105 -274q-104 -109 -250 -109q-88 0 -165 48v-154q0 -162 -121 -162q-123 0 -123 162zM317 354q0 -78 39 -123t101 -45q59 0 97 46t38 122q0 74 -39 119t-96 45 q-61 0 -100.5 -43t-39.5 -121z" />
<glyph unicode="q" horiz-adv-x="874" d="M33 358q0 168 100 269q100 106 252 106q113 0 182 -63q47 59 111 59q121 0 121 -162v-698q0 -162 -121 -162q-125 0 -125 162v154q-72 -47 -166 -48q-145 0 -250 109q-104 113 -104 274zM285 354q0 -76 37.5 -122t99.5 -46q61 0 98 45t37 123t-37 121t-98 43t-99 -44 t-38 -120z" />
<glyph unicode="r" horiz-adv-x="561" d="M78 152v415q0 162 123 162q63 0 106 -59q63 63 152 63q51 0 88 -32.5t37 -79.5q0 -61 -92 -99q-53 -20 -100.5 -38.5t-59.5 -41.5q-10 -27 -10 -73v-217q0 -158 -121 -158q-123 0 -123 158z" />
<glyph unicode="s" horiz-adv-x="638" d="M14 143q0 45 27 74t70 29q33 0 104 -31q76 -29 102 -29q53 0 54 33q0 16 -31 33q-25 10 -46.5 17t-39.5 16q-57 23 -98 44t-64 44q-57 51 -57 133q0 98 82 166q81 69 205 69h4q117 0 194 -49q78 -47 78 -106q0 -41 -29.5 -69t-74.5 -28q-27 0 -88 25q-55 27 -93 27 q-41 0 -41 -27q0 -25 47.5 -41t102.5 -35q98 -41 145 -90t47 -121q0 -109 -86 -176t-227 -67q-129 0 -208 46t-79 113z" />
<glyph unicode="t" horiz-adv-x="493" d="M-8 612q0 47 31.5 75t99.5 28v82q0 161 121 161h2q119 0 119 -161v-82h12q149 -1 149 -103q0 -100 -151 -100h-10v-360q0 -158 -119 -158q-123 0 -123 158v360q-131 0 -131 100z" />
<glyph unicode="u" horiz-adv-x="843" d="M74 293v274q0 162 123 162q119 0 118 -162v-233q0 -74 22.5 -107.5t84.5 -33.5q59 0 80.5 34.5t21.5 106.5v233q0 162 123 162t123 -162v-274q0 -154 -90 -232.5t-258 -78.5t-258 77.5t-90 233.5z" />
<glyph unicode="v" horiz-adv-x="679" d="M-2 616q0 49 31.5 81t85.5 32q84 0 125 -108l110 -328l111 340q27 92 114 92q53 0 85 -30t32 -79q0 -25 -16 -73l-191 -453q-23 -57 -52.5 -80.5t-86.5 -23.5q-59 0 -89 22.5t-54 87.5l-197 459q-8 33 -8 61z" />
<glyph unicode="w" horiz-adv-x="1095" d="M-2 616q0 49 31.5 81t85.5 32q88 0 125 -111l104 -339l86 342q25 100 115 100q94 0 125 -105l90 -333l106 350q33 92 117 92q51 0 84 -29t33 -80q0 -10 -1 -18t-3 -16q0 -4 -15 -39l-172 -453q-23 -57 -52.5 -80.5t-84.5 -23.5q-115 0 -145 112l-82 291l-76 -297 q-14 -49 -50 -77.5t-89 -28.5q-100 0 -146 110l-178 459q-8 35 -8 61z" />
<glyph unicode="x" horiz-adv-x="720" d="M-2 102q0 53 43 97l180 182l-149 143q-43 43 -43 92q0 45 33.5 79t78.5 34q55 0 103 -47l129 -137l114 133q51 51 101 51q53 0 89 -31.5t36 -79.5q0 -43 -54 -96l-139 -139l168 -178q29 -29 41 -50.5t12 -56.5q0 -45 -31.5 -74.5t-78.5 -29.5q-59 0 -113 53l-149 168 l-152 -168q-53 -53 -104 -53q-49 0 -82 30.5t-33 77.5z" />
<glyph unicode="y" horiz-adv-x="702" d="M0 614q0 51 34 83t87 32q80 0 125 -106l112 -291l127 307q41 90 111 90q57 0 89 -30t32 -81q0 -23 -3 -33t-16 -42l-342 -752q-20 -45 -43.5 -67.5t-62.5 -22.5q-123 0 -123 111q0 31 2 34.5t5 14t11 24.5l91 178l-224 490q-12 20 -12 61z" />
<glyph unicode="z" horiz-adv-x="655" d="M-4 74q0 47 33 86l290 352h-169q-150 0 -150 102q0 104 150 105h360q82 0 117 -14.5t35 -59.5q0 -37 -48 -96l-284 -338h198q152 -1 152 -105q0 -106 -154 -106h-405q-125 0 -125 74z" />
<glyph unicode="{" horiz-adv-x="608" d="M49 348v156l37 -2q80 0 112.5 36.5t32.5 118.5v162q0 86 14.5 129t63.5 70q31 18 81 26.5t118 8.5l63 -2v-156h-43q-68 0 -88 -24.5t-20 -94.5v-158q0 -86 -22.5 -129t-90.5 -63q66 -23 89.5 -65t23.5 -128v-157q0 -70 20.5 -92.5t87.5 -22.5l43 2v-156l-63 -2 q-76 0 -119 7.5t-80 27.5q-49 27 -63.5 69t-14.5 124v164q0 82 -31.5 117.5t-113.5 35.5z" />
<glyph unicode="|" horiz-adv-x="731" d="M285 -315v1347h164v-1347h-164z" />
<glyph unicode="}" horiz-adv-x="608" d="M37 -35l43 -2q70 0 90 22.5t20 92.5v158q0 86 23 128t88 64q-63 20 -87 63.5t-24 129.5v157q0 68 -21.5 93.5t-88.5 25.5h-43v156h59q76 0 121 -7.5t86 -29.5q43 -20 59.5 -66.5t16.5 -128.5v-164q0 -82 31.5 -117.5t113.5 -35.5l37 2v-156h-35q-82 0 -114.5 -34.5 t-32.5 -116.5v-164q0 -84 -14.5 -127t-65.5 -66q-63 -35 -197 -35l-65 3v155z" />
<glyph unicode="~" horiz-adv-x="1204" d="M113 352q0 49 45 82q88 61 154.5 88t125.5 27q53 0 125 -19q14 -2 39 -11t52.5 -18t57 -17.5t54.5 -8.5q37 0 76 15.5t86 48.5q27 20 61 20q41 0 71 -31.5t30 -74.5q-1 -47 -48 -82q-143 -100 -276 -101q-37 0 -68 6q-47 12 -67 19q-49 16 -99.5 32.5t-93.5 16.5 q-53 0 -162 -78q-29 -23 -61 -22q-41 0 -71.5 32.5t-30.5 75.5z" />
<glyph unicode="&#xa4;" horiz-adv-x="839" d="M8 164l148 145q-61 82 -62 193q0 115 62 188l-148 150l76 71l145 -145q78 59 193 59q55 0 105.5 -16t82.5 -43l150 145l71 -71l-145 -150q59 -78 59 -188q0 -115 -59 -193l145 -145l-71 -76l-150 148q-31 -25 -83 -43.5t-105 -18.5q-111 0 -193 62l-145 -148zM197 502 q0 -94 63 -164q63 -68 162 -68q92 0 158 68q63 63 63 164q0 45 -16.5 87t-46 72.5t-69.5 49t-89 18.5q-96 0 -160 -67q-66 -72 -65 -160z" />
<glyph unicode="&#xa9;" horiz-adv-x="1081" d="M41 483q0 207 145.5 352.5t352.5 145.5t352 -145.5t145 -352.5t-145 -352q-145 -141 -352 -141q-209 0 -353 141q-145 145 -145 352zM141 483q0 -162 115 -282q113 -117 283 -117q164 0 280.5 116.5t116.5 282.5t-117 281q-115 117 -280 117q-166 0 -283 -117 q-115 -115 -115 -281zM260 483q0 119 77 196t206 77q104 0 182 -60q68 -53 68 -104q0 -43 -13.5 -58.5t-54.5 -23.5q-41 0 -61 18q-6 4 -29 47q-25 39 -92 39q-119 0 -119 -131q0 -59 32.5 -96t86.5 -37q41 0 61.5 12.5t30.5 28.5q18 37 29 47q18 18 61 19q39 -8 53.5 -24.5 t14.5 -57.5q0 -53 -68 -105q-78 -61 -182 -61q-129 0 -206 75.5t-77 198.5z" />
<glyph unicode="&#xab;" horiz-adv-x="737" d="M33 356q0 57 33 97q16 16 39.5 35.5t58.5 41.5q45 33 80 50.5t61 17.5q68 0 68 -86q0 -31 -11.5 -45t-42.5 -37l-110 -74l110 -73q35 -25 44.5 -42t9.5 -42q0 -41 -19.5 -62.5t-50.5 -21.5q-45 0 -139 67q-45 29 -76 56q-55 49 -55 118zM360 356q0 57 33 97 q16 16 40 35.5t59 41.5q47 33 81.5 50.5t61.5 17.5q63 0 63 -86q0 -31 -11 -47t-38 -35l-108 -74l108 -73q29 -18 39 -34.5t10 -49.5q0 -84 -67 -84q-45 0 -139 67q-39 27 -62.5 45.5t-34.5 28.5q-35 41 -35 100z" />
<glyph unicode="&#xac;" d="M63 317v82h695v-268h-84v186h-611z" />
<glyph unicode="&#xad;" d="M61 332v145h697v-145h-697z" />
<glyph unicode="&#xae;" horiz-adv-x="1081" d="M41 483q0 207 145.5 352.5t352.5 145.5t352 -145.5t145 -352.5t-145 -352q-145 -141 -352 -141q-209 0 -353 141q-145 145 -145 352zM141 483q0 -162 115 -282q113 -117 283 -117q164 0 280.5 116.5t116.5 282.5t-117 281q-115 117 -280 117q-166 0 -283 -117 q-115 -115 -115 -281zM317 217v553h234q254 0 254 -162q0 -115 -121 -149l131 -242h-180l-109 219h-51v-219h-158zM475 535h60q55 0 80.5 14t25.5 51q0 68 -113 68h-53v-133z" />
<glyph unicode="&#xb0;" horiz-adv-x="540" d="M66 713q0 -43 16 -80t44 -64.5t63.5 -43t76.5 -15.5q43 0 80 15.5t64.5 43t44 64.5t16.5 80t-16.5 79.5t-44 64.5t-64.5 43t-80 15t-78.5 -16t-63.5 -44t-43 -64.5t-15 -77.5zM121 713q0 61 42 103t103 42t105.5 -43t44.5 -102t-45 -105q-43 -43 -105 -43q-59 0 -102 44 t-43 104z" />
<glyph unicode="&#xb6;" horiz-adv-x="727" d="M-6 858q0 -162 110 -235q94 -61 263 -62v-813h55v1364h145v-1364h62v1364h102v41h-389q-158 0 -248 -66q-100 -76 -100 -229z" />
<glyph unicode="&#xb7;" horiz-adv-x="337" d="M96 449q0 -33 20.5 -53.5t53.5 -20.5q29 0 50.5 21.5t21.5 52.5q0 29 -20.5 50t-51.5 21q-33 0 -53.5 -20.5t-20.5 -50.5z" />
<glyph unicode="&#xbb;" horiz-adv-x="737" d="M35 199q0 31 12 48t39 36l113 73l-113 74q-27 20 -39 35.5t-12 46.5q0 86 69 86q45 0 142 -68q68 -43 94 -75q35 -42 35 -99t-30 -93t-99 -83q-47 -31 -83 -48t-61 -17q-68 0 -67 84zM365 199q0 31 12 48t39 36l108 73l-108 74q-27 20 -39 35.5t-12 46.5q0 86 69 86 q29 0 57.5 -15.5t79.5 -52.5q78 -51 97 -75q34 -42 34 -99q0 -49 -20 -82q-23 -35 -111 -94q-45 -31 -80.5 -48t-60.5 -17q-66 0 -65 84z" />
<glyph unicode="&#xd7;" d="M68 168l237 238l-237 237l102 102l238 -237l239 240l103 -105l-240 -237l240 -240l-103 -103l-239 240l-238 -237z" />
<glyph unicode="&#xf7;" d="M61 332v145h697v-145h-697zM295 141q0 45 33.5 77t81.5 32q47 0 80.5 -32t33.5 -77t-33.5 -76.5t-80.5 -31.5t-81 31.5t-34 76.5zM295 668q0 45 33.5 76.5t81.5 31.5q47 0 80.5 -31.5t33.5 -76.5t-33.5 -77t-80.5 -32t-81 32t-34 77z" />
<glyph unicode="&#x2000;" horiz-adv-x="682" />
<glyph unicode="&#x2001;" horiz-adv-x="1365" />
<glyph unicode="&#x2002;" horiz-adv-x="682" />
<glyph unicode="&#x2003;" horiz-adv-x="1365" />
<glyph unicode="&#x2004;" horiz-adv-x="455" />
<glyph unicode="&#x2005;" horiz-adv-x="341" />
<glyph unicode="&#x2006;" horiz-adv-x="227" />
<glyph unicode="&#x2007;" horiz-adv-x="227" />
<glyph unicode="&#x2008;" horiz-adv-x="170" />
<glyph unicode="&#x2009;" horiz-adv-x="273" />
<glyph unicode="&#x200a;" horiz-adv-x="75" />
<glyph unicode="&#x2010;" horiz-adv-x="628" d="M47 375q0 92 125 92h289q119 0 119 -92t-121 -92h-289q-123 0 -123 92z" />
<glyph unicode="&#x2011;" horiz-adv-x="628" d="M47 375q0 92 125 92h289q119 0 119 -92t-121 -92h-289q-123 0 -123 92z" />
<glyph unicode="&#x2012;" horiz-adv-x="628" d="M47 375q0 92 125 92h289q119 0 119 -92t-121 -92h-289q-123 0 -123 92z" />
<glyph unicode="&#x2013;" d="M61 332v145h697v-145h-697z" />
<glyph unicode="&#x2014;" horiz-adv-x="1638" d="M61 332v145h1516v-145h-1516z" />
<glyph unicode="&#x2018;" horiz-adv-x="358" d="M41 745q0 102 70 173q70 74 149 73q12 0 29 -4q25 -12 24 -41q0 -18 -16 -31q-61 -29 -87 -55t-34 -59q18 6 31 6q110 0 110 -109q0 -49 -35.5 -80.5t-93.5 -31.5q-66 0 -106.5 45t-40.5 114z" />
<glyph unicode="&#x2019;" horiz-adv-x="358" d="M41 874q0 49 36 81t93 32q66 0 106.5 -45t40.5 -115q0 -96 -71 -174q-72 -72 -148 -71q-20 0 -36.5 14t-16.5 31q0 23 26.5 37t55.5 30q23 16 37 38t18 40q-18 -6 -30 -6q-111 0 -111 108z" />
<glyph unicode="&#x201c;" horiz-adv-x="673" d="M41 745q0 102 70 173q70 74 149 73q12 0 29 -4q25 -12 24 -41q0 -18 -16 -31q-61 -29 -87 -55t-34 -59q18 6 31 6q110 0 110 -109q0 -49 -35.5 -80.5t-93.5 -31.5q-66 0 -106.5 45t-40.5 114zM356 745q0 102 70 173q70 74 149 73q12 0 29 -4q25 -12 25 -41q0 -18 -17 -31 q-61 -29 -86.5 -55t-33.5 -59q18 6 30 6q111 0 111 -109q0 -49 -36 -80.5t-93 -31.5q-66 0 -107 45t-41 114z" />
<glyph unicode="&#x201d;" horiz-adv-x="673" d="M41 874q0 49 36 81t93 32q66 0 106.5 -45t40.5 -115q0 -96 -71 -174q-72 -72 -148 -71q-20 0 -36.5 14t-16.5 31q0 23 26.5 37t55.5 30q23 16 37 38t18 40q-18 -6 -30 -6q-111 0 -111 108zM356 874q0 49 36 81t93 32q66 0 107 -45t41 -115q0 -96 -72 -174 q-72 -72 -147 -71q-20 0 -37 14t-17 31q0 23 27 37t55 30q23 16 37.5 38t18.5 40q-18 -6 -31 -6q-111 0 -111 108z" />
<glyph unicode="&#x2022;" horiz-adv-x="737" d="M61 410q0 127 90.5 217t217.5 90t217 -90t90 -217t-90 -217.5t-217 -90.5t-217.5 90.5t-90.5 217.5z" />
<glyph unicode="&#x2026;" horiz-adv-x="1267" d="M72 119q0 55 41 92t100 37t98 -37t39 -92t-39 -90t-98 -35t-100 34.5t-41 90.5zM494 119q0 55 40.5 92t100.5 37q59 0 98 -37t39 -92t-39 -90t-98 -35t-100 34.5t-41 90.5zM915 119q0 55 41 92t101 37q59 0 98 -37t39 -92t-39 -90t-98 -35t-100.5 34.5t-41.5 90.5z" />
<glyph unicode="&#x202f;" horiz-adv-x="273" />
<glyph unicode="&#x205f;" horiz-adv-x="341" />
<glyph unicode="&#x25fc;" horiz-adv-x="727" d="M0 0v727h727v-727h-727z" />
</font>
</defs>
</svg>
